<?xml version="1.0" encoding="UTF-8"?>
<svg xmlns="http://www.w3.org/2000/svg"
     xmlns:xlink="http://www.w3.org/1999/xlink"
     viewBox="0 0 240 200">
  <title>Reusable bunny motifs for the Cylinder Seal Studio gold-standard artwork</title>
  <desc>
    Clean, hand-authored line-art symbols based on the running and seated rabbits in
    the sample image. Each symbol uses the same 240 by 200 coordinate system.
  </desc>

  <defs>
    <symbol id="running-bunny" viewBox="0 0 240 200">
      <title>Running bunny</title>
      <g fill="#fff"
         stroke="#111"
         stroke-width="3.2"
         stroke-linecap="round"
         stroke-linejoin="round">
        <g data-part="tail">
          <path d="M48 82c-5-5-4-12 1-15 2-7 10-9 15-5 6-2 13 3 13 9 6 4 4 12-1 15 0 7-9 10-14 5-7 5-15 1-14-9Z"/>
        </g>

        <g data-part="ears">
          <path d="M159 68c-2-21-12-42-31-56-6-5-10-4-10 2 1 19 10 39 27 56Z"/>
          <path d="M151 72c-13-13-33-16-48-30-8-7-15-18-11-23 4-5 17-2 29 6 20 13 31 29 38 45Z"/>
          <path fill="none" d="M103 26c12 5 31 20 42 33-15-3-32-13-42-24Z"/>
        </g>

        <g data-part="far-legs">
          <path d="M73 116c-16 1-25 9-35 20l-16 14c-6 5-14 5-16-1-3-5 2-12 9-16l23-21c10-9 20-9 31-5Z"/>
          <path d="M80 130c-18 2-28 11-38 20l-15 13c-6 5-14 6-17 1-4-6 1-13 9-18l25-19c11-8 22-9 33-7Z"/>
          <path d="M156 125c15 2 34 7 49 17 11 7 21 16 22 24 2 6-3 10-8 9-5-1-11-7-17-13 6 7 5 13 1 16-6 3-12-2-16-9l-17-18-19-7Z"/>
        </g>

        <g data-part="body-and-head">
          <path d="M50 93c16-12 38-11 56-3 7 3 14 8 20 13 0-15 5-30 17-39 11-9 27-10 41-4 15 6 25 18 28 32 2 9-1 21-7 29-7 9-18 14-28 13-7 0-13-3-19-7 2 8-1 16-7 22-9 9-22 11-35 5-13 9-33 10-48 2-12-7-19-18-22-31-3-13-2-24 4-32Z"/>
        </g>

        <g data-part="near-foreleg">
          <path d="M151 145c15 4 31 8 43 17l17 15c6 6 5 13-1 17-6 4-13 0-19-6l-17-13c-10-7-21-10-29-18Z"/>
        </g>

        <g data-part="face" fill="none">
          <ellipse cx="187" cy="88" rx="4.8" ry="7" fill="#111" stroke="none"/>
          <circle cx="188.5" cy="85.5" r="1.35" fill="#fff" stroke="none"/>
          <path d="M207 100c3-2 7-1 8 2 0 3-2 6-5 7-3-1-5-3-5-6 0-1 1-2 2-3Z" fill="#111"/>
          <path d="M210 108c0 7-4 12-11 15"/>
          <path d="M199 123c-10 5-21 3-29-3"/>
          <path d="M190 99c-10-1-18 0-26 3M191 106c-10 0-18 3-25 6M214 100l14-2M214 106l16 4"/>
        </g>
      </g>
    </symbol>

    <symbol id="seated-bunny" viewBox="0 0 240 200">
      <title>Seated front-facing bunny</title>
      <g fill="#fff"
         stroke="#111"
         stroke-width="3.2"
         stroke-linecap="round"
         stroke-linejoin="round">
        <g data-part="ears">
          <path d="M105 64c-10-12-19-30-19-47 0-10 3-14 8-13 10 3 22 23 24 55Z"/>
          <path d="M124 59c2-21 13-45 23-53 5-4 8-1 7 7-3 20-11 38-18 51Z"/>
          <path fill="none" d="M103 52c-7-11-12-25-11-36 8 7 18 24 20 40M130 55c3-16 11-33 19-42-2 16-9 32-15 43"/>
        </g>

        <g data-part="torso">
          <path d="M97 109c-13 10-19 30-16 51 2 18 14 30 29 33h20c16-4 26-17 28-34 2-20-3-39-15-50Z"/>
        </g>

        <g data-part="feet">
          <path d="M84 149c-14-4-25 5-27 21-3 16 8 27 23 27 14 0 21-7 20-20-1-14-7-25-16-28Z"/>
          <path d="M156 149c14-4 25 5 27 21 3 16-8 27-23 27-14 0-21-7-20-20 1-14 7-25 16-28Z"/>
          <g fill="none" stroke-width="2.7">
            <ellipse cx="80" cy="179" rx="9" ry="13"/>
            <ellipse cx="160" cy="179" rx="9" ry="13"/>
            <ellipse cx="68" cy="162" rx="3.2" ry="4.5" transform="rotate(-24 68 162)"/>
            <ellipse cx="76" cy="157" rx="3.2" ry="4.5" transform="rotate(-12 76 157)"/>
            <ellipse cx="85" cy="159" rx="3.2" ry="4.5" transform="rotate(10 85 159)"/>
            <ellipse cx="172" cy="162" rx="3.2" ry="4.5" transform="rotate(24 172 162)"/>
            <ellipse cx="164" cy="157" rx="3.2" ry="4.5" transform="rotate(12 164 157)"/>
            <ellipse cx="155" cy="159" rx="3.2" ry="4.5" transform="rotate(-10 155 159)"/>
          </g>
        </g>

        <g data-part="head">
          <path d="M120 54c-24 0-40 13-43 34-3 19 10 33 28 38 9 3 21 3 31 0 18-4 30-18 27-37-3-20-19-35-43-35Z"/>
        </g>

        <g data-part="chest-ruff">
          <path d="M103 116c-4 3-4 9 1 12-3 5 1 11 6 11-1 7 5 13 10 17 5-4 11-10 10-17 6 0 9-6 6-11 5-3 5-8 1-12"/>
        </g>

        <g data-part="forelegs" fill="none">
          <path d="M100 143c-2 14 1 35 6 48M140 143c2 15-1 35-6 48"/>
          <path d="M116 157v32c0 5-4 7-8 4M124 157v32c0 5 4 7 8 4"/>
        </g>

        <g data-part="face" fill="none">
          <ellipse cx="101" cy="87" rx="4.8" ry="7" fill="#111" stroke="none"/>
          <ellipse cx="139" cy="87" rx="4.8" ry="7" fill="#111" stroke="none"/>
          <circle cx="102.5" cy="84.5" r="1.35" fill="#fff" stroke="none"/>
          <circle cx="140.5" cy="84.5" r="1.35" fill="#fff" stroke="none"/>
          <path d="M114 97c0-3 3-5 6-5s6 2 6 5c0 3-3 6-6 8-3-2-6-5-6-8Z"/>
          <path d="M120 105v6M120 111c-3 6-9 6-12 2M120 111c3 6 9 6 12 2"/>
          <path d="M84 91l-23-3M84 97l-24 1M86 103l-20 7M156 91l23-3M156 97l24 1M154 103l20 7"/>
        </g>
      </g>
    </symbol>
  </defs>
</svg>
